<mxfile host="Electron" agent="Mozilla/5.0 (Macintosh; Intel Mac OS X 10_15_7) AppleWebKit/537.36 (KHTML, like Gecko) draw.io/28.0.6 Chrome/138.0.7204.100 Electron/37.2.3 Safari/537.36" version="28.0.6" pages="2">
  <diagram name="Part-1" id="gnyHD6DQl4g-SpTYwuEr">
    <mxGraphModel dx="1242" dy="795" grid="1" gridSize="10" guides="1" tooltips="1" connect="1" arrows="1" fold="1" page="1" pageScale="1" pageWidth="1100" pageHeight="850" math="0" shadow="0">
      <root>
        <mxCell id="0" />
        <mxCell id="1" parent="0" />
        <mxCell id="iDLRMhWgTTm-kY-QYcGv-1" value="100010100000000001001010100000000001101010000000000000101111010001111000" style="text;html=1;align=center;verticalAlign=middle;resizable=0;points=[];autosize=1;strokeColor=none;fillColor=none;" vertex="1" parent="1">
          <mxGeometry x="250" y="238" width="500" height="30" as="geometry" />
        </mxCell>
        <mxCell id="iDLRMhWgTTm-kY-QYcGv-2" value="8A004A801A8002F478" style="text;html=1;align=center;verticalAlign=middle;resizable=0;points=[];autosize=1;strokeColor=none;fillColor=none;" vertex="1" parent="1">
          <mxGeometry x="40" y="238" width="150" height="30" as="geometry" />
        </mxCell>
        <mxCell id="iDLRMhWgTTm-kY-QYcGv-3" value="Version: 4&lt;br&gt;Type ID: 2 (Operator)&lt;br&gt;Length Type: 1&lt;br&gt;Number of packets: 1 (00000000001)&lt;br&gt;Sub-packet:&amp;nbsp;00101010000" style="whiteSpace=wrap;html=1;shape=mxgraph.basic.roundRectCallout;dx=30;dy=15;size=5;boundedLbl=1;fillColor=#fff2cc;strokeColor=#d6b656;" vertex="1" parent="1">
          <mxGeometry x="750" y="160" width="290" height="90" as="geometry" />
        </mxCell>
        <mxCell id="iDLRMhWgTTm-kY-QYcGv-4" value="" style="shape=flexArrow;endArrow=classic;html=1;rounded=0;exitX=0.987;exitY=0.617;exitDx=0;exitDy=0;exitPerimeter=0;fillColor=#f5f5f5;strokeColor=#666666;" edge="1" parent="1" source="iDLRMhWgTTm-kY-QYcGv-2" target="iDLRMhWgTTm-kY-QYcGv-1">
          <mxGeometry width="50" height="50" relative="1" as="geometry">
            <mxPoint x="210" y="420" as="sourcePoint" />
            <mxPoint x="260" y="370" as="targetPoint" />
          </mxGeometry>
        </mxCell>
        <mxCell id="iDLRMhWgTTm-kY-QYcGv-5" value="100 010 1 00000000001 00101010000 0000001101010000000000000101111010001111000" style="text;html=1;align=center;verticalAlign=middle;resizable=0;points=[];autosize=1;strokeColor=none;fillColor=none;" vertex="1" parent="1">
          <mxGeometry x="255" y="280" width="510" height="30" as="geometry" />
        </mxCell>
        <mxCell id="iDLRMhWgTTm-kY-QYcGv-6" value="00101010000" style="text;html=1;strokeColor=none;fillColor=none;align=center;verticalAlign=middle;whiteSpace=wrap;rounded=0;" vertex="1" parent="1">
          <mxGeometry x="250" y="360" width="110" height="30" as="geometry" />
        </mxCell>
        <mxCell id="iDLRMhWgTTm-kY-QYcGv-7" value="001 010 1 0000" style="text;html=1;strokeColor=none;fillColor=none;align=center;verticalAlign=middle;whiteSpace=wrap;rounded=0;" vertex="1" parent="1">
          <mxGeometry x="255" y="395" width="345" height="30" as="geometry" />
        </mxCell>
        <mxCell id="iDLRMhWgTTm-kY-QYcGv-8" value="8A004A801A8002F478)&lt;sub&gt;16&lt;/sub&gt; = (100010100000000001001010100000000001101010000000000000101111010001111000)&lt;sub&gt;2&lt;/sub&gt;" style="text;html=1;align=center;verticalAlign=middle;resizable=0;points=[];autosize=1;strokeColor=none;fillColor=none;" vertex="1" parent="1">
          <mxGeometry x="150" y="70" width="660" height="30" as="geometry" />
        </mxCell>
        <mxCell id="iDLRMhWgTTm-kY-QYcGv-9" value="01100010000000001000000000000000000101100001000101010110001011001000100000000010000100011000111000110100" style="text;html=1;align=center;verticalAlign=middle;resizable=0;points=[];autosize=1;strokeColor=none;fillColor=none;" vertex="1" parent="1">
          <mxGeometry x="220" y="530" width="710" height="30" as="geometry" />
        </mxCell>
        <mxCell id="iDLRMhWgTTm-kY-QYcGv-10" value="&lt;div style=&quot;color: rgb(204, 204, 204); background-color: rgb(31, 31, 31); font-family: Menlo, Monaco, &amp;quot;Courier New&amp;quot;, monospace; line-height: 18px;&quot;&gt;620080001611562C8802118E34&lt;/div&gt;" style="text;html=1;align=center;verticalAlign=middle;resizable=0;points=[];autosize=1;strokeColor=none;fillColor=none;" vertex="1" parent="1">
          <mxGeometry x="10" y="530" width="210" height="30" as="geometry" />
        </mxCell>
        <mxCell id="iDLRMhWgTTm-kY-QYcGv-11" value="011 000 1 00000000010 00000000000 000000101100001000101010110001011001000100000000010000100011000111000110100" style="text;html=1;align=center;verticalAlign=middle;resizable=0;points=[];autosize=1;strokeColor=none;fillColor=none;" vertex="1" parent="1">
          <mxGeometry x="210" y="570" width="730" height="30" as="geometry" />
        </mxCell>
        <mxCell id="iDLRMhWgTTm-kY-QYcGv-12" value="Version: 3 (011)&lt;br&gt;Type ID: 0 (Operator)&lt;br&gt;Length Type: 1&lt;br&gt;Number of packets: 2 (00000000010)&lt;br&gt;Sub-packet #1:&amp;nbsp;00000000000&lt;br&gt;Sub-packet #2:&amp;nbsp;000000101100001000101010110001011001000100000000010000100011000111000110100" style="whiteSpace=wrap;html=1;shape=mxgraph.basic.roundRectCallout;dx=30;dy=15;size=5;boundedLbl=1;fillColor=#fff2cc;strokeColor=#d6b656;" vertex="1" parent="1">
          <mxGeometry x="935" y="460" width="675" height="100" as="geometry" />
        </mxCell>
      </root>
    </mxGraphModel>
  </diagram>
  <diagram id="C8JyyZIbKpnLYOrMIRp7" name="TODO">
    <mxGraphModel dx="1234" dy="822" grid="1" gridSize="10" guides="1" tooltips="1" connect="1" arrows="1" fold="1" page="1" pageScale="1" pageWidth="1169" pageHeight="827" math="0" shadow="0">
      <root>
        <mxCell id="0" />
        <mxCell id="1" parent="0" />
      </root>
    </mxGraphModel>
  </diagram>
</mxfile>
